<?xml version="1.0" encoding="UTF-8"?>
<svg id="Layer_1" data-name="Layer 1" xmlns="http://www.w3.org/2000/svg" xmlns:xlink="http://www.w3.org/1999/xlink" viewBox="0 0 63.64 69.32">
  <defs>
    <style>
      .cls-1 {
        fill: url(#linear-gradient-2);
      }

      .cls-2 {
        fill: url(#linear-gradient-17);
      }

      .cls-3 {
        fill: url(#linear-gradient-15);
      }

      .cls-4 {
        fill: url(#linear-gradient-18);
      }

      .cls-5 {
        fill: url(#linear-gradient-14);
      }

      .cls-6 {
        fill: url(#linear-gradient-20);
      }

      .cls-7 {
        fill: url(#linear-gradient-6);
      }

      .cls-8 {
        fill: url(#linear-gradient-11);
      }

      .cls-9 {
        fill: url(#linear-gradient-10);
      }

      .cls-10 {
        fill: url(#linear-gradient-16);
      }

      .cls-11 {
        fill: url(#linear-gradient-21);
      }

      .cls-12 {
        fill: url(#linear-gradient-25);
      }

      .cls-13 {
        fill: url(#linear-gradient-5);
      }

      .cls-14 {
        fill: url(#linear-gradient-7);
      }

      .cls-15 {
        fill: url(#linear-gradient-24);
      }

      .cls-16 {
        fill: url(#linear-gradient-9);
      }

      .cls-17 {
        fill: url(#linear-gradient-22);
      }

      .cls-18 {
        fill: url(#linear-gradient-3);
      }

      .cls-19 {
        fill: url(#linear-gradient);
      }

      .cls-20 {
        fill: url(#linear-gradient-23);
      }

      .cls-21 {
        fill: url(#linear-gradient-19);
      }

      .cls-22 {
        fill: url(#linear-gradient-4);
      }

      .cls-23 {
        fill: url(#linear-gradient-8);
      }

      .cls-24 {
        fill: url(#linear-gradient-12);
      }

      .cls-25 {
        fill: url(#linear-gradient-13);
      }

      .cls-26 {
        fill: url(#linear-gradient-26);
      }
    </style>
    <linearGradient id="linear-gradient" x1="0" y1="29.72" x2="63.64" y2="29.72" gradientUnits="userSpaceOnUse">
      <stop offset="0" stop-color="#ef4a38"/>
      <stop offset="1" stop-color="#f9a63f"/>
    </linearGradient>
    <linearGradient id="linear-gradient-2" x1="46.98" y1="31.34" x2="54.72" y2="31.34" xlink:href="#linear-gradient"/>
    <linearGradient id="linear-gradient-3" x1="20.83" y1="38" x2="31.42" y2="38" xlink:href="#linear-gradient"/>
    <linearGradient id="linear-gradient-4" x1="18.15" y1="25.37" x2="35.84" y2="25.37" xlink:href="#linear-gradient"/>
    <linearGradient id="linear-gradient-5" x1="41.93" y1="27.23" x2="55.62" y2="27.23" xlink:href="#linear-gradient"/>
    <linearGradient id="linear-gradient-6" x1="41.93" y1="27.23" x2="55.62" y2="27.23" xlink:href="#linear-gradient"/>
    <linearGradient id="linear-gradient-7" x1="41.94" y1="40.33" x2="46.98" y2="40.33" xlink:href="#linear-gradient"/>
    <linearGradient id="linear-gradient-8" x1="49.34" y1="24.41" x2="51.68" y2="24.41" xlink:href="#linear-gradient"/>
    <linearGradient id="linear-gradient-9" x1="44" y1="67.09" x2="45.37" y2="67.09" xlink:href="#linear-gradient"/>
    <linearGradient id="linear-gradient-10" x1="34.18" y1="44.05" x2="35.81" y2="44.05" xlink:href="#linear-gradient"/>
    <linearGradient id="linear-gradient-11" x1="38.57" y1="44.09" x2="40.71" y2="44.09" xlink:href="#linear-gradient"/>
    <linearGradient id="linear-gradient-12" x1="38.57" y1="44.09" x2="40.71" y2="44.09" xlink:href="#linear-gradient"/>
    <linearGradient id="linear-gradient-13" x1="36.29" y1="44.07" x2="38.14" y2="44.07" xlink:href="#linear-gradient"/>
    <linearGradient id="linear-gradient-14" x1="36.29" y1="44.07" x2="38.14" y2="44.07" xlink:href="#linear-gradient"/>
    <linearGradient id="linear-gradient-15" x1="10.99" y1="42.89" x2="12.65" y2="42.89" xlink:href="#linear-gradient"/>
    <linearGradient id="linear-gradient-16" x1="10.99" y1="42.89" x2="12.65" y2="42.89" xlink:href="#linear-gradient"/>
    <linearGradient id="linear-gradient-17" x1="42.12" y1="54.22" x2="45.37" y2="54.22" xlink:href="#linear-gradient"/>
    <linearGradient id="linear-gradient-18" x1="11.12" y1="43.38" x2="41.93" y2="43.38" xlink:href="#linear-gradient"/>
    <linearGradient id="linear-gradient-19" x1="21.44" y1="44.12" x2="21.96" y2="44.12" xlink:href="#linear-gradient"/>
    <linearGradient id="linear-gradient-20" x1="21.44" y1="44.12" x2="21.96" y2="44.12" xlink:href="#linear-gradient"/>
    <linearGradient id="linear-gradient-21" x1="41.14" y1="44.14" x2="42.96" y2="44.14" xlink:href="#linear-gradient"/>
    <linearGradient id="linear-gradient-22" x1="41.14" y1="44.14" x2="42.96" y2="44.14" xlink:href="#linear-gradient"/>
    <linearGradient id="linear-gradient-23" x1="44.15" y1="57.28" x2="44.81" y2="57.28" xlink:href="#linear-gradient"/>
    <linearGradient id="linear-gradient-24" x1="33.96" y1="57.28" x2="44.81" y2="57.28" xlink:href="#linear-gradient"/>
    <linearGradient id="linear-gradient-25" x1="18.28" y1="57.83" x2="26.91" y2="57.83" xlink:href="#linear-gradient"/>
    <linearGradient id="linear-gradient-26" x1="21.97" y1="56.06" x2="28.6" y2="56.06" xlink:href="#linear-gradient"/>
  </defs>
  <path class="cls-19" d="m63.64,31.82C63.64,14.25,49.39,0,31.82,0S0,14.25,0,31.82c0,9.32,4.01,17.71,10.4,23.52v-10.66c0-.73.15-1.43.42-2.06-.07.17-.11.36-.11.57,0,.32.1.63.27.87v-.52c0-.73.15-1.43.43-2.06-.07.17-.11.36-.11.57v.02c.8-1.75,2.53-2.98,4.55-3.08,1.23-7.76,3.11-15.41,5.65-22.88,5.98,2.03,11.95,4.07,17.93,6.1-1.73,5.1-3.12,10.3-4.14,15.57-.21,1.05-.4,2.11-.57,3.16-.15.88-.28,1.76-.41,2.64h1.5c.13-.88.25-1.76.4-2.64.17-1.04.35-2.08.56-3.12,1.03-5.36,2.43-10.65,4.19-15.84-4.71-1.6-9.42-3.2-14.13-4.8.4-.81.81-1.61,1.23-2.41,5.6,2.93,11.19,5.86,16.78,8.78-2.43,4.63-4.54,9.42-6.33,14.31-.38,1.02-.73,2.03-1.08,3.06-.29.88-.57,1.76-.85,2.64h1.55c.27-.88.55-1.76.85-2.64.34-1.01.69-2.02,1.06-3.02,1.79-4.9,3.91-9.7,6.34-14.34-4.4-2.31-8.81-4.62-13.22-6.93.52-.73,1.05-1.46,1.59-2.19,5.08,3.75,10.15,7.51,15.23,11.27-2.9,3.92-5.55,8.01-7.95,12.24-.55.98-1.1,1.97-1.62,2.96-.46.87-.91,1.76-1.35,2.64h1.65c.45-.88.89-1.77,1.36-2.64.52-.97,1.05-1.94,1.6-2.91,2.35-4.16,4.97-8.18,7.82-12.03-4-2.96-8-5.92-12-8.88.63-.64,1.26-1.28,1.91-1.92,2.64,2.68,5.29,5.35,7.93,8.03-2.47-2.5-4.93-5-7.4-7.5.13-.13.25-.25.39-.38,4.43,4.49,8.87,8.98,13.31,13.47-3.3,3.25-6.4,6.7-9.28,10.31.76.29,1.3,1.03,1.3,1.89v18.4c9.55-5.49,16-15.79,16-27.6h0Z"/>
  <path class="cls-1" d="m52.33,26.25s.05-.07.08-.11c-.24-.18-.49-.36-.73-.54,1.01,1.02,2.03,2.05,3.04,3.07-2.71,2.68-5.29,5.49-7.73,8.41,2.44-2.92,5.02-5.73,7.74-8.41-.8-.81-1.59-1.61-2.39-2.42h0Z"/>
  <path class="cls-18" d="m21.38,40.23c.44-4.09,3.28-7.14,6.35-6.8,1.53.16,2.83,1.14,3.69,2.58-.81-1.97-2.32-3.35-4.18-3.55-3.07-.33-5.91,2.72-6.35,6.8-.17,1.56.05,3.06.54,4.32h.17c-.26-1.03-.35-2.17-.22-3.35h0Z"/>
  <polygon class="cls-22" points="35.84 21.87 22.33 17.54 18.15 33.21 22.93 18.67 35.84 21.87"/>
  <path class="cls-13" d="m52.41,26.14s-.05.07-.08.11c.79.81,1.59,1.61,2.39,2.42-2.71,2.68-5.29,5.49-7.74,8.41-.52.63-1.04,1.26-1.55,1.9h.18c.26,0,.51.05.73.14,2.89-3.61,5.99-7.06,9.28-10.31-4.43-4.49-8.87-8.98-13.31-13.47-.13.13-.26.25-.39.38,2.47,2.5,4.93,5,7.4,7.5.78.79,1.56,1.58,2.34,2.37.24.18.49.36.73.54h0Z"/>
  <path class="cls-7" d="m52.41,26.14s-.05.07-.08.11c.79.81,1.59,1.61,2.39,2.42-2.71,2.68-5.29,5.49-7.74,8.41-.52.63-1.04,1.26-1.55,1.9h.18c.26,0,.51.05.73.14,2.89-3.61,5.99-7.06,9.28-10.31-4.43-4.49-8.87-8.98-13.31-13.47-.13.13-.26.25-.39.38,2.47,2.5,4.93,5,7.4,7.5.78.79,1.56,1.58,2.34,2.37.24.18.49.36.73.54h0Z"/>
  <path class="cls-14" d="m45.43,38.99c.51-.64,1.03-1.27,1.55-1.9-1.08,1.29-2.13,2.6-3.15,3.93-.64.84-1.27,1.69-1.89,2.55h1.02c.58-.81,1.18-1.61,1.79-2.4.52-.69,1.06-1.37,1.61-2.05-.23-.09-.48-.14-.73-.14h-.19Z"/>
  <path class="cls-23" d="m51.68,25.59c-.78-.79-1.56-1.58-2.34-2.37.78.79,1.55,1.58,2.33,2.36h0Z"/>
  <path class="cls-16" d="m44.15,68.56c0,.27-.05.52-.15.76.79-.28,1.37-1.03,1.37-1.91v-2.55h-1.22v3.7Z"/>
  <path class="cls-9" d="m35.68,44.53h0c.04-.32.09-.64.13-.96h-1.5c-.04.31-.09.61-.13.93l1.49.03h0Z"/>
  <path class="cls-8" d="m38.57,44.58l1.63.03h0c.17-.35.34-.69.52-1.04h-1.65c-.17.34-.34.67-.5,1.01h0Z"/>
  <path class="cls-24" d="m38.57,44.58l1.63.03h0c.17-.35.34-.69.52-1.04h-1.65c-.17.34-.34.67-.5,1.01h0Z"/>
  <path class="cls-25" d="m36.29,44.54h0l1.54.02c.1-.33.2-.66.31-.99h-1.55c-.1.32-.2.64-.29.97h0Z"/>
  <path class="cls-5" d="m36.29,44.54h0l1.54.02c.1-.33.2-.66.31-.99h-1.55c-.1.32-.2.64-.29.97h0Z"/>
  <path class="cls-3" d="m11.2,44.31h1.45c-.85,0-1.53-.69-1.53-1.53,0-.2.04-.39.11-.57,0-.02.01-.04.03-.06.01-.03.03-.07.05-.1v-.02c0-.2.04-.39.11-.57-.28.64-.43,1.34-.43,2.06v.52c.07.09.14.17.22.25h0Z"/>
  <path class="cls-10" d="m11.2,44.31h1.45c-.85,0-1.53-.69-1.53-1.53,0-.2.04-.39.11-.57,0-.02.01-.04.03-.06.01-.03.03-.07.05-.1v-.02c0-.2.04-.39.11-.57-.28.64-.43,1.34-.43,2.06v.52c.07.09.14.17.22.25h0Z"/>
  <path class="cls-2" d="m45.37,45.61c0-1.12-.93-2.03-2.08-2.03h-.34c-.28.38-.55.76-.82,1.15,1.12.01,2.02.91,2.02,2.03v5.67h.66v9.71h-.66v2.73h1.22v-19.26h0Z"/>
  <path class="cls-4" d="m11.23,42.21c-.07.17-.11.36-.11.57,0,.85.69,1.53,1.53,1.53h-1.45c.27.25.64.41,1.03.41h28.89s.04-.07.05-.1c.25-.35.5-.7.75-1.04h-1.22c-.17.35-.35.69-.52,1.04h0l-1.63-.03h0c.16-.34.33-.67.5-1.01h-.93c-.1.33-.2.66-.31.99l-1.54-.02h0c.1-.32.2-.64.29-.97h-.78c-.04.32-.09.64-.13.96h0l-1.49-.03c.04-.31.09-.61.13-.93h-12.71c.1.38.22.74.35,1.09-.2-.34-.37-.7-.52-1.09h-8.57c-.86,0-1.55-.68-1.56-1.52-.01.03-.03.06-.05.1-.01.02-.02.04-.03.06Z"/>
  <path class="cls-21" d="m21.96,44.66c-.14-.34-.26-.71-.35-1.09h-.17c.15.39.32.75.52,1.09Z"/>
  <path class="cls-6" d="m21.96,44.66c-.14-.34-.26-.71-.35-1.09h-.17c.15.39.32.75.52,1.09Z"/>
  <path class="cls-11" d="m41.18,44.61s-.04.07-.05.1h1c.27-.39.55-.77.82-1.15h-1.02c-.25.35-.51.69-.75,1.04h0Z"/>
  <path class="cls-17" d="m41.18,44.61s-.04.07-.05.1h1c.27-.39.55-.77.82-1.15h-1.02c-.25.35-.51.69-.75,1.04h0Z"/>
  <rect class="cls-20" x="44.15" y="52.42" width=".66" height="9.71"/>
  <path class="cls-15" d="m38.81,52.42c-2.68,0-4.86,2.17-4.86,4.86h0c0,2.68,2.17,4.86,4.86,4.86h5.99v-9.71h-5.99Z"/>
  <path class="cls-12" d="m25.96,60.91c.53-.86.86-1.92.86-3.08,0-.38-.03-.74-.1-1.1-.07-.37-.17-.73-.31-1.07-.06.03-.1.06-.16.09-.07.04-.19.09-.34.13-.24.09-.58.16-.97.14.16.27.29.57.36.9.07.27.11.57.13.87.04.78-.14,1.51-.48,2.11l-1.35-1.37-.07.07-.95.95.93.93.47.47c-.37.24-.78.38-1.24.41-1.57.06-2.91-1.43-2.98-3.35-.07-1.72.9-3.19,2.24-3.49.16-.04.3-.07.46-.07.38-.01.76.06,1.1.21v-1.81c-.31-.09-.63-.13-.97-.13-.2,0-.38.01-.58.06-2.1.33-3.69,2.45-3.69,5.05,0,2.82,1.9,5.1,4.28,5.1.99,0,1.66-.45,2.46-.91.04-.02.39.49.43.54.22.27.58.47.91.27.15-.1.26-.24.35-.4.12-.21.31-.43.14-.66-.13-.18-.33-.29-.5-.44-.05-.05-.44-.32-.38-.42Z"/>
  <path class="cls-26" d="m25.29,51.34h-3.32v9.44c.26,0,.51,0,.78-.03.16,0,.31-.01.46-.03.1,0,.19-.01.27-.01v-.23c.01-.63.01-1.25.03-1.88,0-.53.01-1.05.01-1.57.33-.03.66-.04.98-.07.26-.01.51-.03.78-.04.26-.01.53-.03.78-.04.11-.01.24-.01.36-.03.1-.03.2-.07.28-.11,1.11-.44,1.88-1.43,1.88-2.55,0-1.57-1.48-2.84-3.31-2.84Zm1.11,4.32c-.06.03-.1.06-.16.09-.07.04-.19.09-.34.13-.24.09-.58.16-.97.14-.23,0-.44-.03-.68-.1-.06-.01-.13-.04-.2-.06-.2-.09-.38-.19-.53-.29v-2.79s.03-.03.06-.03c.07-.04.14-.1.23-.13.36-.19.77-.3,1.21-.3,1.27,0,2.28.83,2.28,1.85,0,.61-.36,1.14-.9,1.48Z"/>
</svg>